# xmcd
#
# Track frame offsets:
#	150
#	14125
#	29625
#	41950
#	54637
#	76725
#	87700
#	98987
#	120250
#	144712
#	169925
#	183937
#	196650
#	208625
#	221625
#	237762
#	250587
#	291887
#	312662
#
# Disc length: 4625 seconds
#
# Revision: 0
# Processed by: cddbd v1.5PL3 Copyright (c) Steve Scherf et al.
# Submitted via: dBpowerAMP V4.0
#
DISCID=1a120f13
DTITLE=la fabuleuse histoire du rock - blues
DYEAR=1995
DGENRE=Blues
TTITLE0=otis rush-i can't quit you baby
TTITLE1=sonny boy williamson-nine below zero
TTITLE2=elmore james-i believe
TTITLE3=t bone walker-they call it stormy monday
TTITLE4=lightin'hopkins-too more's farm
TTITLE5=howlin'wolf-the red rooster
TTITLE6=john lee hooker-boom boom
TTITLE7=buddy guy-mustang sally
TTITLE8=bb king-the thrill is gone
TTITLE9=albert king-red house
TTITLE10=champion jack dupree-postman blues
TTITLE11=muddy waters-i'm your hoochie coochie man
TTITLE12=robert johnson-crossroad blues
TTITLE13=mike bloomfield-last night
TTITLE14=john mayall-all your love
TTITLE15=canned heat-going up the country
TTITLE16=steve ray vaughan-tin pan alley
TTITLE17=johnny winter-good morning little school girl
TTITLE18=ten years after-love like a man
EXTD=
EXTT0=
EXTT1=
EXTT2=
EXTT3=
EXTT4=
EXTT5=
EXTT6=
EXTT7=
EXTT8=
EXTT9=
EXTT10=
EXTT11=
EXTT12=
EXTT13=
EXTT14=
EXTT15=
EXTT16=
EXTT17=
EXTT18=
PLAYORDER=
